<svg aria-hidden="true" style="position:absolute;width:0;height:0" xmlns="http://www.w3.org/2000/svg" overflow="hidden"><defs><symbol id="facebook" viewBox="0 0 32 32"><path d="M21.328 5.312h2.923V.224A36.478 36.478 0 0 0 20.144 0h-.157.008c-4.213 0-7.099 2.65-7.099 7.52V12H8.25v5.688h4.646V32h5.698V17.69h4.461l.707-5.688h-5.168V8.08c0-1.643.443-2.768 2.734-2.768z"/></symbol><symbol id="instagram" viewBox="0 0 32 32"><path d="M31.968 9.408c-.074-1.701-.349-2.869-.742-3.882a7.839 7.839 0 0 0-1.85-2.837l-.001-.001A7.906 7.906 0 0 0 26.597.861l-.054-.018C25.524.449 24.362.176 22.661.101 20.949.019 20.405 0 16.059 0c-4.344 0-4.888.019-6.595.094-1.699.074-2.869.349-3.88.742a7.847 7.847 0 0 0-2.839 1.85l-.001.001A7.9 7.9 0 0 0 .919 5.465l-.018.054C.506 6.538.232 7.7.157 9.401c-.082 1.712-.101 2.256-.101 6.602 0 4.344.019 4.888.094 6.595.075 1.701.35 2.869.744 3.882a7.915 7.915 0 0 0 1.849 2.837l.001.001c.8.813 1.77 1.443 2.832 1.843 1.019.395 2.182.67 3.882.744 1.707.075 2.251.094 6.595.094 4.346 0 4.89-.019 6.595-.094 1.701-.074 2.869-.349 3.882-.742a8.237 8.237 0 0 0 4.664-4.628l.019-.055c.394-1.019.669-2.182.744-3.882.075-1.707.093-2.251.093-6.595s-.006-4.888-.08-6.595zm-2.88 13.066c-.07 1.563-.333 2.406-.55 2.97a5.341 5.341 0 0 1-3.004 3.024l-.036.012c-.56.219-1.411.482-2.968.55-1.688.075-2.194.094-6.464.094-4.269 0-4.782-.019-6.464-.094-1.563-.069-2.406-.331-2.97-.55a4.953 4.953 0 0 1-1.836-1.192l-.001-.001a4.978 4.978 0 0 1-1.184-1.803L3.6 25.45c-.218-.563-.48-1.413-.549-2.97-.075-1.688-.094-2.195-.094-6.464 0-4.27.019-4.784.094-6.464.069-1.563.331-2.406.549-2.97a4.897 4.897 0 0 1 1.198-1.837l.002-.002a4.972 4.972 0 0 1 1.806-1.182l.034-.011c.56-.219 1.411-.48 2.968-.55 1.688-.074 2.195-.093 6.464-.093 4.275 0 4.782.019 6.464.093 1.563.069 2.406.331 2.97.55a4.91 4.91 0 0 1 1.837 1.194c.531.52.938 1.144 1.195 1.84.218.56.48 1.411.549 2.968.075 1.688.094 2.194.094 6.464 0 4.269-.019 4.768-.094 6.458z"/><path d="M16.059 7.782a8.223 8.223 0 0 0-8.219 8.221 8.223 8.223 0 1 0 16.442.008v-.009a8.223 8.223 0 0 0-8.221-8.221zm0 13.552a5.333 5.333 0 0 1 .001-10.666h.001a5.334 5.334 0 1 1 0 10.668zM26.525 7.458a1.92 1.92 0 0 1-3.84 0 1.92 1.92 0 0 1 3.84 0z"/></symbol><symbol id="linkedin" viewBox="0 0 32 32"><path d="M31.992 32H32V20.262c0-5.741-1.235-10.163-7.947-10.163-3.227 0-5.392 1.77-6.277 3.45h-.093v-2.914h-6.365v21.363h6.627V21.42c0-2.786.528-5.48 3.978-5.48 3.398 0 3.45 3.179 3.45 5.658V32h6.619zM.528 10.635h6.635V32H.528V10.635zM3.843 0A3.843 3.843 0 0 0 0 3.843c0 2.12 1.722 3.878 3.843 3.878 2.12 0 3.842-1.757 3.842-3.878S5.965.002 3.844 0z"/></symbol><symbol id="logo1" viewBox="0 0 29 32"><path d="M3.84.363l4.677 4.4h13.046v12.275l4.677 4.399V.362H3.84z"/><path d="M0 4.578v20.473h21.76v-8.138L8.655 4.583 0 4.578zm17.615 17.478H3.443V8.286h1.002v12.837h13.17v.932zM6.266 28.86l.524-1.078h.438l-.764 1.437v.837h-.397v-.837l-.764-1.437h.439l.524 1.078zm2.247.668h-.881l-.184.529h-.411l.859-2.275h.355l.861 2.275h-.413l-.186-.529zm-.77-.319h.659l-.33-.944-.33.944zm2.328.234c0-.106.029-.202.086-.289s.17-.193.339-.314a1.498 1.498 0 0 1-.182-.276l-.004-.008a.568.568 0 0 1-.052-.226c0-.178.054-.319.163-.422a.604.604 0 0 1 .437-.156.57.57 0 0 1 .406.147c.106.096.16.217.16.36v.003a.497.497 0 0 1-.074.262l.001-.002a.858.858 0 0 1-.233.236l-.003.002-.155.113.44.518a.91.91 0 0 0 .095-.417h.33c0 .28-.065.51-.196.689l.334.395h-.44l-.128-.151a.936.936 0 0 1-.557.183h-.026.001c-.225 0-.405-.06-.54-.178a.597.597 0 0 1-.202-.447v-.021.001zm.753.343a.58.58 0 0 0 .359-.128l-.497-.586-.049.034c-.125.095-.188.204-.188.325 0 .106.034.191.102.256a.37.37 0 0 0 .254.1h.019-.001zm-.21-1.466c0 .087.054.197.161.33l.173-.119.049-.038a.283.283 0 0 0 .097-.212v-.009-.002a.199.199 0 0 0-.067-.149.233.233 0 0 0-.162-.064h-.019a.224.224 0 0 0-.167.075.276.276 0 0 0-.066.179v.01zm4.134.996c-.023.243-.113.433-.269.569-.156.135-.364.203-.623.203a.893.893 0 0 1-.48-.128.866.866 0 0 1-.317-.362l-.002-.005a1.302 1.302 0 0 1-.117-.544v-.22c0-.214.038-.403.114-.567a.882.882 0 0 1 .326-.378.913.913 0 0 1 .494-.133c.251 0 .453.068.606.205s.243.329.268.578h-.394c-.019-.164-.067-.282-.144-.353-.076-.073-.188-.109-.336-.109a.464.464 0 0 0-.397.189c-.092.125-.138.308-.141.552v.202c0 .246.044.433.132.562s.218.194.387.194c.155 0 .272-.035.35-.104s.128-.186.148-.349h.394zm2.17-.337c0 .223-.038.419-.115.588-.077.168-.188.297-.332.387s-.307.134-.494.134a.92.92 0 0 1-.493-.134.897.897 0 0 1-.332-.38l-.002-.006a1.335 1.335 0 0 1-.119-.555v-.022.001-.128c0-.223.038-.419.117-.588s.19-.3.333-.389c.144-.09.308-.136.493-.136s.35.045.493.134a.867.867 0 0 1 .333.384c.078.166.118.361.118.583v.127zm-.396-.119c0-.252-.048-.445-.143-.58a.465.465 0 0 0-.384-.202l-.022.001h.001-.016c-.159 0-.3.08-.384.201l-.001.002c-.096.133-.145.322-.147.567v.131c0 .25.049.443.146.579s.233.205.406.205c.175 0 .31-.067.403-.2.095-.134.142-.328.142-.584v-.119z"/></symbol><symbol id="logo2" viewBox="0 0 25 32"><path d="M10.447 1.806h.084c.156 0 .324.015.49.03a13.96 13.96 0 0 1 2.18.329V.403a12.432 12.432 0 0 0-2.207-.357l-.042-.002c-.254-.02-.571-.035-.889-.043H9.779c-1.523.006-3.04.201-4.515.582a18.28 18.28 0 0 0-4.79 1.948v17.475a18.922 18.922 0 0 1 4.431-1.75l.135-.029a19.11 19.11 0 0 1 3.78-.586l.052-.002h.052c.216-.011.433-.017.655-.018V15.83c-1.78.024-3.493.264-5.129.695l.147-.033c-.603.157-1.185.326-1.731.513l-.623.212V3.591l.266-.128c1.89-.918 4.096-1.513 6.424-1.649l.047-.002.028-.001.029.001h-.001c.248-.012.497-.018.742-.018h.28c.129.003.258.006.388.014z"/><path d="M14.838 3.651h-.016c-.915 0-1.811-.077-2.684-.225l.094.013c-.277-.047-.55-.103-.814-.164V20.55c1.12.277 2.271.412 3.425.404a18.432 18.432 0 0 0 4.643-.61l-.128.029a18.299 18.299 0 0 0 4.877-1.995l-.085.047V1.262a19.021 19.021 0 0 1-4.429 1.751l-.136.03a19.338 19.338 0 0 1-4.746.609zm6.907.299l.623-.209v13.63l-.266.129c-.903.443-1.963.834-3.065 1.118l-.119.026a16.52 16.52 0 0 1-4.074.527c-.411 0-.818-.017-1.214-.052l-.426-.038V5.064l.497.033c.361.023.735.034 1.141.034a21.134 21.134 0 0 0 5.32-.696l-.147.033a25.26 25.26 0 0 0 1.924-.576l-.193.058zM1.684 25.977a.916.916 0 0 0-.661-.281l-.033.001h.002-.014c-.139 0-.272.028-.393.078l.007-.003a.904.904 0 0 0-.51.512l-.002.006a1.002 1.002 0 0 0-.072.386v2.335c-.006.164.026.328.092.479a.83.83 0 0 0 .554.479c.114.031.231.048.349.048a.985.985 0 0 0 .968-.982v-.261h-.61v.221a.53.53 0 0 1-.038.199l.001-.004a.38.38 0 0 1-.089.132.426.426 0 0 1-.255.089.308.308 0 0 1-.286-.125l-.001-.001a.548.548 0 0 1-.082-.289l.001-.024v.001-2.177a.74.74 0 0 1 .075-.349.31.31 0 0 1 .262-.143l.038.002H.986h.012c.107 0 .201.052.26.131l.001.001a.494.494 0 0 1 .102.301v.013-.001.202h.604v-.238-.011c0-.143-.027-.28-.077-.405l.003.007a.955.955 0 0 0-.205-.329zm3.626-.026a1.083 1.083 0 0 0-.694-.257 1.08 1.08 0 0 0-.364.066.963.963 0 0 0-.556.511l-.002.006a1.08 1.08 0 0 0-.089.452v2.239c-.004.158.026.314.089.458a.903.903 0 0 0 .237.314.97.97 0 0 0 .322.197 1.047 1.047 0 0 0 1.06-.198l-.001.001a.955.955 0 0 0 .231-.314c.063-.144.093-.301.089-.458v-2.239-.021c0-.156-.033-.304-.092-.438l.003.007a1.016 1.016 0 0 0-.23-.327zm-.285 3.018l.001.034a.4.4 0 0 1-.123.29c-.077.065-.177.104-.287.104s-.21-.039-.288-.105l.001.001a.398.398 0 0 1-.121-.325v.002-2.239l-.001-.034a.4.4 0 0 1 .123-.289c.077-.065.177-.104.287-.104s.21.039.288.105l-.001-.001a.398.398 0 0 1 .121.325v-.002 2.24zm5.047 1v-4.24h-.586l-.77 2.244h-.011l-.777-2.244h-.581v4.239h.606V27.39h.011l.593 1.823h.302l.598-1.823h.011v2.578h.605zm3.441-3.942a.834.834 0 0 0-.342-.232 1.31 1.31 0 0 0-.416-.066h-.024.001-.9v4.24h.604v-1.656h.311a1.1 1.1 0 0 0 .545-.116.88.88 0 0 0 .329-.32l.002-.004a1 1 0 0 0 .138-.369c.021-.133.033-.287.033-.444v-.04.002a2.426 2.426 0 0 0-.059-.606.906.906 0 0 0-.223-.39zm-.312 1.292a.538.538 0 0 1-.057.224l.001-.003a.342.342 0 0 1-.154.147l-.002.001a.617.617 0 0 1-.254.054l-.033-.001h.002-.275V26.3h.311l.029-.001c.088 0 .172.02.247.055l-.004-.002a.35.35 0 0 1 .141.154l.001.002a.62.62 0 0 1 .053.236v.282c0 .098.006.201 0 .291h-.006zm3.173-1.59h-.495l-.934 4.24h.604l.177-.911h.823l.178.911h.604l-.958-4.24zm-.557 2.752l.297-1.537h.011l.295 1.537h-.604zm4.46-.198h-.011l-.913-2.554h-.58v4.24h.604v-2.55h.012l.923 2.549h.569v-4.239h-.604v2.554zm3.691-2.554l-.486 1.686h-.012l-.486-1.686h-.639l.83 2.448v1.791h.604v-1.791l.83-2.447h-.64zM0 31.166h.291v.817h.198v-.817h.289v-.167H0v.168zm2.447-.168l-.382.985h.21l.081-.224h.392l.084.224h.215l-.391-.985h-.21zm-.03.595l.134-.365.134.365h-.268zm2.449.027h.228v.127a.378.378 0 0 1-.234.083h-.014a.25.25 0 0 1-.195-.094.406.406 0 0 1-.073-.234l.001-.023v.001c0-.219.095-.329.283-.329l.021-.001c.097 0 .178.067.201.157v.001l.194-.038c-.042-.192-.18-.289-.417-.289h-.013a.492.492 0 0 0-.331.127.48.48 0 0 0-.141.38v-.002.023c0 .132.048.254.127.347l-.001-.001c.087.09.209.146.343.146L4.877 32h-.001.016c.155 0 .296-.06.402-.157v-.388h-.426v.166zm2.471-.622h-.198v.985h.689v-.167h-.49v-.817zm2.089 0h-.199v.985h.199v-.985zm2.042.657l-.403-.657h-.193v.985h.185v-.643l.396.643h.198v-.985h-.182v.658zm1.847-.106h.49v-.167h-.49v-.215h.527v-.168h-.727v.985h.747v-.167h-.548v-.266zm4.477-.163h-.388v-.388h-.198v.984h.198v-.431h.388v.431h.198v-.985h-.197v.388zm1.857.163h.492v-.167h-.492v-.215h.529v-.168h-.726v.985h.746v-.167h-.548v-.266zm2.519.001c.172-.027.258-.118.258-.274a.23.23 0 0 0-.095-.219h-.001a.555.555 0 0 0-.25-.059l-.04.001h.002-.417v.985h.197v-.412h.055c.039 0 .076.008.109.023l-.002-.001a.201.201 0 0 1 .07.072l.215.313h.236l-.119-.192a.697.697 0 0 0-.216-.235l-.002-.002zm-.199-.137h-.146v-.247h.156a.538.538 0 0 1 .204.024l-.004-.001a.128.128 0 0 1 .028.158v-.001a.128.128 0 0 1-.037.043.561.561 0 0 1-.162.024l-.04-.001h.002zm2.099.136h.49v-.167h-.49v-.215h.529v-.168h-.728v.985h.747v-.167h-.548v-.266z"/></symbol><symbol id="logo3" viewBox="0 0 31 32"><path d="M4.723 31.315c.023.001.044.01.06.025l.153.159c-.119.13-.266.233-.431.303a1.551 1.551 0 0 1-.61.109h-.031c-.195 0-.382-.037-.554-.105l.01.004a1.25 1.25 0 0 1-.709-.721l-.003-.009a1.574 1.574 0 0 1-.097-.547v-.021.001a1.502 1.502 0 0 1 .104-.569c.067-.164.168-.315.298-.442.13-.125.286-.223.459-.288.188-.069.389-.104.592-.102.188-.004.374.028.549.092.151.063.29.149.412.256l-.129.17a.114.114 0 0 1-.032.03.084.084 0 0 1-.044.013h-.008a.12.12 0 0 1-.056-.018l-.069-.045-.096-.058a.994.994 0 0 0-.296-.1l-.006-.001a1.18 1.18 0 0 0-.213-.019h-.015.001-.013c-.148 0-.29.028-.42.079l.008-.003a.973.973 0 0 0-.334.214 1 1 0 0 0-.214.334l-.002.007c-.05.129-.079.279-.079.435v.015-.001c-.002.156.025.31.079.457.046.125.119.24.212.339a.858.858 0 0 0 .318.21c.125.049.259.074.394.073.078.001.156-.004.234-.015a.878.878 0 0 0 .505-.233.112.112 0 0 1 .073-.03zm4.421-.801a1.51 1.51 0 0 1-.103.563c-.063.164-.161.313-.288.438s-.282.223-.452.287a1.718 1.718 0 0 1-1.176-.003l.012.004a1.337 1.337 0 0 1-.45-.288 1.298 1.298 0 0 1-.288-.433l-.003-.009a1.597 1.597 0 0 1 .003-1.141l-.004.011c.07-.173.168-.32.29-.444.129-.121.282-.216.45-.278a1.696 1.696 0 0 1 1.176.004l-.012-.004c.17.066.324.164.452.288.127.127.224.275.289.437.071.182.106.374.104.568zm-.402 0v-.025c0-.154-.027-.301-.076-.438l.003.009a.89.89 0 0 0-.523-.55l-.006-.002a1.239 1.239 0 0 0-.855.003l.009-.003a.906.906 0 0 0-.528.547l-.002.006a1.447 1.447 0 0 0 0 .906c.088.255.28.453.524.549l.006.002c.273.097.573.097.846 0a.886.886 0 0 0 .527-.544l.002-.007c.052-.147.076-.3.073-.454zm3.418.475l.041.102a1.643 1.643 0 0 1 .094-.202l.978-1.683c.019-.03.036-.048.056-.052a.25.25 0 0 1 .069-.01h.012-.001.289v2.739h-.342v-2.099l-.001-.047.002-.049v.002l-.984 1.707a.149.149 0 0 1-.057.062h-.001a.16.16 0 0 1-.082.022h-.057c-.03.001-.06-.007-.084-.022s-.045-.036-.058-.062v-.001l-1.012-1.718v2.199h-.331v-2.733h.303c.024 0 .047.003.068.01h-.002a.114.114 0 0 1 .053.051v.001l.999 1.686c.018.028.035.06.048.093l.001.004zm3.681-.137v1.026h-.383v-2.734h.886c.158 0 .311.022.456.063l-.012-.003a.94.94 0 0 1 .337.17c.085.074.15.166.191.268a.918.918 0 0 1 .066.35.825.825 0 0 1-.071.35.76.76 0 0 1-.205.273l-.001.001a.976.976 0 0 1-.339.182 1.497 1.497 0 0 1-.461.063l-.463-.007zm0-.293h.463a.992.992 0 0 0 .297-.042.625.625 0 0 0 .215-.119l-.001.001a.486.486 0 0 0 .129-.178l.001-.003a.56.56 0 0 0 .046-.224v-.007l.001-.028a.505.505 0 0 0-.041-.198l.001.003a.536.536 0 0 0-.133-.186h-.001a.77.77 0 0 0-.518-.148h.003-.463v1.127zm5.145 1.323h-.307a.134.134 0 0 1-.079-.026.168.168 0 0 1-.049-.063v-.001l-.26-.662h-1.307l-.27.662a.159.159 0 0 1-.047.061.135.135 0 0 1-.082.028h-.307l1.148-2.739h.398l1.164 2.739zm-1.895-1.017h1.08l-.455-1.115c-.03-.07-.06-.155-.083-.243l-.003-.013-.045.143a1.172 1.172 0 0 1-.045.125l.003-.009-.452 1.113zm3.549-1.709a.185.185 0 0 1 .058.049l1.674 2.065v-2.127h.342v2.739h-.197a.177.177 0 0 1-.073-.016h.001a.212.212 0 0 1-.061-.05l-1.674-2.063a.753.753 0 0 1 0 .095v2.035h-.342v-2.739h.203a.143.143 0 0 1 .068.013zm4.897 1.637v1.087h-.383v-1.087l-1.058-1.65H26.445c.028 0 .054.009.075.024a.234.234 0 0 1 .052.061l.001.001.662 1.064c.045.07.085.15.114.235l.002.008.05-.118a.879.879 0 0 1 .066-.125l.653-1.072a.279.279 0 0 1 .05-.058.12.12 0 0 1 .076-.027h.352l-1.06 1.657zm-15.566-6.245c.167.02.335.036.505.051 2.582-1.094 4.768-2.884 6.282-5.148a13.08 13.08 0 0 0 2.23-7.577l-2.846-2.695c.189.888.297 1.909.297 2.955 0 2.003-.396 3.913-1.114 5.657l.036-.099c-1.09 2.715-2.956 5.089-5.389 6.856z"/><path d="M10.954 24.422l.077.015c2.6-1.762 4.583-4.221 5.692-7.06.627-1.554.99-3.355.99-5.242 0-1.289-.17-2.538-.488-3.726l.023.1-4.054-3.838c1.639 3.155 2.3 6.687 1.903 10.183s-1.833 6.815-4.143 9.569zm13.75-9.385c-.689 2.943-2.361 5.598-4.77 7.569a14.88 14.88 0 0 1-2.191 1.501l-.076.039a13.577 13.577 0 0 0 5.285-2.835l-.017.014a12.68 12.68 0 0 0 3.38-4.65l.031-.083-1.645-1.555z"/><path d="M24.06 14.604l-2.341-2.216a13.555 13.555 0 0 1-2.229 7.204l.032-.051c-1.394 2.156-3.373 3.918-5.729 5.105h.012c.525 0 1.049-.03 1.571-.089a14.38 14.38 0 0 0 5.664-3.942 13.284 13.284 0 0 0 3.005-5.921l.016-.089zM11.294 3.051L8.501.404c-2.497.913-4.644 2.519-6.16 4.607S.008 9.572.001 12.106c.01 2.8 1.005 5.518 2.829 7.722s4.372 3.77 7.242 4.449c2.562-2.954 4.061-6.606 4.281-10.424s-.851-7.601-3.059-10.802zm19.218 11.145c-.01-3.322-1.408-6.506-3.89-8.855s-5.843-3.673-9.352-3.683h-.019c-1.695 0-3.318.306-4.817.867l.095-.031 17.099 16.191c.559-1.326.884-2.868.884-4.486v-.002z"/></symbol><symbol id="logo4" viewBox="0 0 60 32"><path d="M9.229 9.548h-.002c-1.683 0-3.048 1.331-3.048 2.971v.002c0 1.64 1.365 2.971 3.048 2.971h.002c1.683 0 3.048-1.331 3.048-2.971v-.002c0-1.64-1.365-2.97-3.048-2.97zm22.501-.949a8.508 8.508 0 0 0-2.59-6.075A8.954 8.954 0 0 0 22.909 0c-2.339.004-4.581.912-6.236 2.523s-2.585 3.797-2.59 6.076v12.566S31.728 19.25 31.73 8.601v-.002zM0 25.289a5.909 5.909 0 0 0 1.801 4.226l.002.001a6.223 6.223 0 0 0 4.336 1.758 6.215 6.215 0 0 0 4.337-1.759l-.002.002a5.905 5.905 0 0 0 1.803-4.224v-8.746S-.001 17.882-.001 25.29zm6.14 1.566h-.003c-.331 0-.639-.098-.897-.267l.006.004a1.583 1.583 0 0 1-.588-.693l-.004-.01a1.511 1.511 0 0 1-.089-.914l-.002.01a1.56 1.56 0 0 1 .441-.802c.22-.213.5-.365.813-.427l.01-.002c.312-.061.635-.03.929.089s.545.319.722.577a1.546 1.546 0 0 1 .146 1.481l.004-.01c-.08.191-.199.365-.348.511s-.327.262-.522.341a1.61 1.61 0 0 1-.616.12h-.001v-.006zm12.531-.971h-1.256v1.297h-.653v-3.173h2.067v.53h-1.414v.819h1.256v.528zm3.144-.218c0 .313-.056.586-.166.822s-.269.417-.476.545a1.29 1.29 0 0 1-.682.192h-.025.001l-.039.001c-.504 0-.939-.296-1.141-.723l-.003-.008c-.109-.23-.173-.5-.173-.785v-.028.001-.158c0-.313.056-.588.167-.825.114-.238.273-.42.478-.547.206-.128.442-.192.707-.192s.499.064.703.192c.207.127.366.309.478.547.113.237.17.511.17.822v.141zm-.663-.144c0-.333-.06-.586-.179-.759a.585.585 0 0 0-.485-.26l-.027.001h.001-.024a.58.58 0 0 0-.482.256l-.001.002c-.119.17-.18.42-.182.749v.155c0 .324.06.576.179.755s.291.268.515.268l.026.001c.2 0 .375-.101.479-.255l.001-.002c.118-.173.177-.424.179-.755v-.155zm2.784.826v-.018a.329.329 0 0 0-.131-.264l-.001-.001c-.087-.067-.244-.137-.47-.21a3.363 3.363 0 0 1-.558-.227l.019.009c-.36-.195-.541-.457-.541-.787 0-.171.048-.324.144-.458s.236-.24.417-.316c.182-.075.385-.113.61-.113s.429.042.606.124a.953.953 0 0 1 .412.347c.099.15.148.32.148.511h-.654a.422.422 0 0 0-.137-.338c-.092-.082-.22-.123-.386-.123-.16 0-.284.034-.373.103a.316.316 0 0 0-.133.258v.008c0 .103.052.189.155.259.104.07.258.135.46.196.372.112.644.251.813.417s.255.372.255.618c0 .275-.104.491-.312.647s-.487.234-.839.234c-.244 0-.467-.045-.667-.133a1.068 1.068 0 0 1-.458-.365l-.002-.003a.938.938 0 0 1-.156-.521v-.02.001h.656c0 .35.21.525.628.525a.616.616 0 0 0 .365-.094.312.312 0 0 0 .131-.253v-.014.001zm3.49-1.811h-.972v2.644H25.8v-2.644h-.959v-.53h2.586v.53zm2.285 1.268h-1.255v.85h1.474v.525h-2.126v-3.173h2.123v.53h-1.47v.756h1.256v.513zm1.778.214h-.521v1.162h-.655v-3.173h1.18c.374 0 .664.083.867.251s.305.403.305.708a.983.983 0 0 1-.141.543.95.95 0 0 1-.419.341l-.006.002.687 1.297v.03h-.703l-.595-1.162zm-.521-.53h.527c.164 0 .292-.042.382-.124a.45.45 0 0 0 .136-.323l-.001-.025v.001a.474.474 0 0 0-.129-.353c-.084-.086-.214-.129-.391-.129h-.525v.953zm3.963.573v1.119h-.655v-3.173h1.239c.238 0 .447.043.628.131s.321.211.418.372c.097.16.146.342.146.548 0 .311-.106.557-.32.737-.212.179-.507.268-.883.268h-.573zm0-.529h.584c.173 0 .304-.041.394-.123.092-.081.138-.197.138-.348l.001-.023a.522.522 0 0 0-.139-.355.519.519 0 0 0-.38-.149h-.599v.997zm4.138.272h-1.255v.85h1.474v.525H37.16v-3.173h2.124v.53h-1.469v.756h1.255v.513zm3.035-1.268h-.972v2.644h-.655v-2.644h-.959v-.53h2.585v.53zm2.284 1.268h-1.255v.85h1.474v.525h-2.128v-3.173h2.124v.53h-1.47v.756h1.256v.513zm1.778.214h-.521v1.162h-.654v-3.173h1.18c.375 0 .665.083.868.251s.305.403.305.708a.983.983 0 0 1-.141.543.95.95 0 0 1-.419.341l-.006.002.686 1.297v.03h-.702l-.595-1.162zm-.521-.53h.528c.164 0 .29-.042.381-.124a.448.448 0 0 0 .135-.322l-.001-.026v.001a.474.474 0 0 0-.128-.353c-.085-.086-.214-.129-.391-.129h-.525v.953zm3.843.859v-.018a.329.329 0 0 0-.131-.264l-.001-.001c-.087-.067-.244-.137-.47-.21a3.363 3.363 0 0 1-.558-.227l.019.009c-.36-.195-.541-.457-.541-.787 0-.171.048-.324.144-.458s.236-.24.417-.316c.181-.075.385-.113.61-.113s.429.042.606.124a.953.953 0 0 1 .412.347c.099.15.148.32.148.511h-.654a.422.422 0 0 0-.137-.338c-.092-.082-.22-.123-.387-.123-.159 0-.283.034-.372.103a.316.316 0 0 0-.133.258v.008c0 .103.052.189.155.259.104.07.258.135.46.196.372.112.644.251.813.417s.255.372.255.618c0 .275-.104.491-.312.647s-.487.234-.839.234c-.244 0-.467-.045-.667-.133a1.068 1.068 0 0 1-.458-.365l-.002-.003a.938.938 0 0 1-.156-.521v-.02.001h.656c0 .35.21.525.628.525a.616.616 0 0 0 .365-.094.311.311 0 0 0 .13-.253v-.014.001z"/></symbol><symbol id="logo5" viewBox="0 0 40 32"><path d="M3.056 26.742c.157.194.24.438.236.688l.001.053c0 .324-.141.615-.365.815l-.001.001a1.575 1.575 0 0 1-1.061.317H.001v-4.361h1.827a1.548 1.548 0 0 1 1.017.294l-.004-.003a.994.994 0 0 1 .355.763l-.002.055v-.003c.011.24-.065.477-.212.667a.99.99 0 0 1-.556.34c.247.046.471.177.63.373zm-2.188-.658h.78a.733.733 0 0 0 .497-.145.516.516 0 0 0 .169-.383l-.002-.045v.002l.001-.037a.535.535 0 0 0-.167-.389.748.748 0 0 0-.514-.146h.003-.767v1.144zm1.354 1.672a.542.542 0 0 0 .186-.408l-.001-.036v.002l.001-.032a.552.552 0 0 0-.189-.416l-.001-.001a.8.8 0 0 0-.48-.159l-.054.002h.002-.818v1.199h.829a.816.816 0 0 0 .524-.151zm4.567.861l-1.016-1.704h-.382v1.704h-.874v-4.361h1.654a1.624 1.624 0 0 1 1.156.373l-.003-.002a1.391 1.391 0 0 1 .12 1.808l.003-.004a1.337 1.337 0 0 1-.789.443l1.083 1.743H6.79zm-1.397-2.299h.715c.497 0 .745-.22.745-.66l.001-.037a.647.647 0 0 0-.184-.453.766.766 0 0 0-.565-.177h.003-.724l.009 1.328zm6.176 1.421H9.826l-.308.878h-.916l1.6-4.313h.991l1.593 4.312h-.916l-.301-.878zm-.233-.66l-.637-1.84-.637 1.84h1.273zm6.215 1.538h-.869l-1.945-2.965v2.965h-.866v-4.361h.866l1.945 2.982v-2.982h.868v4.361zm4.952-1.044c-.182.33-.45.593-.775.764l-.01.005a2.545 2.545 0 0 1-1.22.274h-1.546v-4.361h1.546l.067-.001c.42 0 .817.1 1.168.277l-.015-.007c.332.168.606.433.785.761.171.333.272.727.272 1.144s-.1.811-.278 1.158l.007-.014zm-.993-.104c.239-.278.384-.642.384-1.041s-.145-.763-.386-1.043l.002.002a1.5 1.5 0 0 0-1.091-.371h.004-.603v2.823h.603a1.496 1.496 0 0 0 1.088-.372l-.002.001zM12.111 0s11.201 4.246 10.964 10.39v10.392s-11.193-4.248-10.96-10.392L12.111 0zm20.943 18.349a15.15 15.15 0 0 1 7.049-2.628l.068-.006v-3.253c-2.995 1.181-5.437 3.227-7.081 5.827l-.035.06z"/><path d="M31.782 19.329c1.749-3.487 4.693-6.158 8.283-7.513l.105-.035V2.408S24.218 8.456 24.555 17.205v14.796s.711-.27 1.829-.778c0-.473 0-.95.051-1.43a15.39 15.39 0 0 1 5.325-10.446l.021-.017z"/><path d="M30.265 24.825c.084-1.026.271-2.041.558-3.03a14.243 14.243 0 0 0-3.378 8.921v.016a43.944 43.944 0 0 0 3.287-1.741l-.218.118a15.497 15.497 0 0 1-.244-4.34l-.004.057zm.635.053a14.803 14.803 0 0 0 .212 3.971l-.015-.092c4.357-2.619 9.255-6.664 9.066-11.553v-.426a14.265 14.265 0 0 0-8.297 3.894l.005-.005a14.26 14.26 0 0 0-.968 4.158l-.003.052z"/></symbol><symbol id="logo6" viewBox="0 0 62 32"><path d="M31.123 14.854a2.248 2.248 0 0 1-.396-1.437v.007-2.074c0-.637.132-1.12.394-1.45s.715-.495 1.356-.494c.602 0 1.03.141 1.282.422.275.359.41.798.379 1.241v.487h-1.077v-.494l.001-.064c0-.148-.012-.293-.034-.435l.002.016a.482.482 0 0 0-.153-.287.575.575 0 0 0-.345-.113l-.048.002h.002a.616.616 0 0 0-.412.119l.002-.001a.568.568 0 0 0-.178.313l-.001.004a2.594 2.594 0 0 0-.042.513v2.518a1.425 1.425 0 0 0 .142.715l-.004-.008a.526.526 0 0 0 .212.171l.003.001a.544.544 0 0 0 .28.04h-.003a.545.545 0 0 0 .382-.115l-.001.001a.522.522 0 0 0 .16-.303v-.003c.026-.167.037-.336.034-.504v-.511h1.077v.466a2.015 2.015 0 0 1-.377 1.311l.004-.006c-.247.308-.669.462-1.288.462s-1.088-.164-1.354-.506zm4.485.022c-.272-.323-.408-.794-.408-1.416v-2.183c0-.616.136-1.082.408-1.399s.726-.474 1.364-.473c.633 0 1.085.158 1.358.473.271.317.41.783.41 1.399v2.183c0 .616-.139 1.089-.415 1.414-.277.325-.727.487-1.354.487s-1.09-.164-1.364-.485zm1.865-.524c.097-.202.142-.424.129-.646v-2.672l.002-.072a1.28 1.28 0 0 0-.133-.569l.003.007a.528.528 0 0 0-.216-.173l-.003-.001a.533.533 0 0 0-.287-.037h.003a.546.546 0 0 0-.289.039l.004-.001a.527.527 0 0 0-.219.172l-.001.001a1.242 1.242 0 0 0-.129.633v2.685a1.29 1.29 0 0 0 .129.646.672.672 0 0 0 .222.158l.004.002a.692.692 0 0 0 .558-.002l-.005.002a.672.672 0 0 0 .226-.16v-.013zm2.562-4.884h1.16l.872 4.028.892-4.028h1.128l.113 5.813h-.833l-.089-4.04-.861 4.04h-.669l-.892-4.054-.083 4.054h-.843l.104-5.812zm5.465 0h1.806c1.04 0 1.56.55 1.56 1.651 0 1.054-.547 1.58-1.643 1.579h-.614v2.583h-1.115l.007-5.812zm1.543 2.484c.11.014.222.004.327-.028a.78.78 0 0 0 .286-.155 1.01 1.01 0 0 0 .16-.657l.001-.067c0-.163-.02-.322-.057-.474l.003.014a.425.425 0 0 0-.083-.161l.001.001a.484.484 0 0 0-.139-.116l-.002-.001a1.055 1.055 0 0 0-.499-.092h.003-.433v1.736h.433zm3.431-2.484h1.197l1.229 5.813h-1.039l-.243-1.341H50.55l-.25 1.341h-1.055l1.229-5.812zm1.023 3.799l-.417-2.44-.417 2.44h.835zm2.395-3.799h.779l1.494 3.316V9.468h.925v5.812h-.742l-1.503-3.462v3.462h-.957l.002-5.812zm5.366 3.596l-1.242-3.588h1.046l.758 2.305.711-2.305h1.023l-1.226 3.588v2.216h-1.071v-2.216zm-26.413 4.758v.304h-.91v2.362h-.381v-2.362h-.914v-.304h2.205zm2.852 2.666h-.302a.124.124 0 0 1-.075-.026.134.134 0 0 1-.048-.06v-.001l-.263-.633h-1.262l-.264.633a.181.181 0 0 1-.04.072.124.124 0 0 1-.076.025h-.301l1.115-2.666h.387l1.128 2.655zm-1.847-.99h1.053l-.446-1.085a1.908 1.908 0 0 1-.08-.236l-.003-.014-.042.141-.04.111-.442 1.083zm3.769.728c.07.003.139.003.209 0 .061-.006.12-.017.179-.032a1.3 1.3 0 0 0 .169-.052l-.009.003c.049-.019.099-.042.15-.065v-.6h-.451a.082.082 0 0 1-.055-.021.057.057 0 0 1-.022-.046v-.208h.865v1.022a1.61 1.61 0 0 1-.459.214l-.012.003a1.747 1.747 0 0 1-.269.055l-.009.001a2.896 2.896 0 0 1-.321.017h-.018c-.197 0-.386-.037-.56-.103l.011.004a1.34 1.34 0 0 1-.446-.279l.001.001a1.293 1.293 0 0 1-.285-.414l-.003-.008a1.424 1.424 0 0 1-.103-.535v-.018-.016c0-.195.037-.38.105-.551l-.004.01c.064-.158.161-.301.287-.422.127-.12.279-.214.446-.277a1.71 1.71 0 0 1 .598-.099c.104 0 .207.007.31.023.09.014.179.036.266.067a1.2 1.2 0 0 1 .223.106c.069.042.134.088.195.139l-.108.165a.103.103 0 0 1-.036.036.098.098 0 0 1-.051.014.137.137 0 0 1-.07-.021h.001a1.281 1.281 0 0 1-.114-.066l.005.003a.905.905 0 0 0-.143-.07l-.007-.002a1.21 1.21 0 0 0-.197-.058l-.008-.001a1.495 1.495 0 0 0-.268-.023h-.016.001-.013c-.15 0-.293.027-.425.077l.008-.003a.912.912 0 0 0-.328.211.924.924 0 0 0-.207.332 1.338 1.338 0 0 0 .003.898l-.003-.009c.049.125.125.24.223.335a.935.935 0 0 0 .326.211c.142.046.292.064.442.053zm3.553-.042h1.217v.304h-1.59v-2.666h.381l-.009 2.362zm2.484.303h-.381v-2.664h.381v2.666zm1.418-2.653a.192.192 0 0 1 .057.048l1.63 2.01-.002-.048.002-.05v.002-1.986h.332v2.676h-.191l-.013.001a.171.171 0 0 1-.071-.016h.001a.266.266 0 0 1-.06-.05l-1.628-2.007v2.072h-.319v-2.665h.198c.022 0 .043.004.063.013zm4.827-.012v.294H48.55v.88h1.095v.282H48.55v.91h1.351v.294h-1.743v-2.659h1.743zM9.95 1.359l16.929 4.55v15.946L9.952 17.308V1.359zM8.865 0v18.081l19.098 5.135V5.136L8.865-.001z"/><path d="M19.1 31.61L0 26.471V8.391l19.1 5.137V31.61z"/><path d="M9.181 1.155l16.707 4.493-7.105 6.728-16.71-4.495L9.18 1.154zM8.865 0L0 8.392l19.1 5.137 8.863-8.392L8.865 0zm11.31 30.593l7.788-7.374-7.788-2.096v9.47z"/></symbol><symbol id="mail" viewBox="0 0 43 32"><path d="M38.667 0H4C1.795 0 0 1.675 0 3.733v22.405c0 2.059 1.795 3.733 4 3.733h34.667c2.205 0 4-1.675 4-3.733V3.733c0-2.059-1.795-3.733-4-3.733zm0 2.488c.181 0 .355.037.512.099L21.334 17.024 3.489 2.587c.152-.062.327-.098.512-.099h34.667zm0 24.893H4c-.736 0-1.333-.557-1.333-1.243V5.215L20.459 19.61c.235.189.537.304.866.304h.017c.329 0 .631-.115.869-.306l-.003.002L40 5.215v20.923c0 .685-.597 1.243-1.333 1.243z"/></symbol><symbol id="plane" viewBox="0 0 32 32"><path fill="var(--color4, #fff)" d="M32 0L0 18l10.227 3.787L26 7 14.003 23.187l.009.003-.012-.003V32l5.735-6.691L27.002 28l4.999-28z"/></symbol><symbol id="tel" viewBox="0 0 21 32"><path d="M18.133 0H3.2C1.436 0 0 1.34 0 2.987v25.89c0 1.647 1.436 2.987 3.2 2.987h14.933c1.764 0 3.2-1.34 3.2-2.987V2.987c0-1.647-1.436-2.987-3.2-2.987zM3.2 1.99h14.933c.589 0 1.067.448 1.067.996v20.911H2.133V2.986c0-.548.478-.996 1.067-.996zm14.933 27.883H3.2c-.589 0-1.067-.448-1.067-.996V25.89H19.2v2.987c0 .548-.478.994-1.067.994z"/><path d="M5.022 27.177a.947.947 0 0 1 0 1.407l-.001.001c-.198.182-.464.293-.755.293s-.557-.111-.756-.294l.001.001a.947.947 0 0 1 0-1.407l.001-.001c.198-.182.464-.293.755-.293s.557.111.756.294l-.001-.001z"/></symbol><symbol id="twitter" viewBox="0 0 32 32"><path d="M32 6.078c-1.1.493-2.376.857-3.713 1.028l-.068.007a6.556 6.556 0 0 0 2.873-3.579l.013-.046a12.88 12.88 0 0 1-4.076 1.573l-.084.014A6.558 6.558 0 0 0 15.6 9.557v.004c0 .52.043 1.021.152 1.496-5.454-.266-10.28-2.88-13.522-6.861a6.524 6.524 0 0 0-.902 3.313v.001a6.57 6.57 0 0 0 2.914 5.451 6.453 6.453 0 0 1-2.994-.823l.033.017v.072a6.592 6.592 0 0 0 5.213 6.44l.043.008a6.403 6.403 0 0 1-1.662.215h-.061.003c-.419 0-.843-.024-1.242-.112.85 2.598 3.261 4.509 6.13 4.57a13.093 13.093 0 0 1-8.122 2.8H1.57h.001-.062c-.531 0-1.055-.034-1.569-.099l.061.006c2.826 1.846 6.287 2.944 10.004 2.944h.063-.003c12.072 0 18.672-10 18.672-18.669 0-.288-.01-.57-.024-.848a13.203 13.203 0 0 0 3.258-3.355l.03-.047z"/></symbol><symbol id="close" viewBox="0 0 32 32"><path d="M32 3.223l-3.223-3.223-12.777 12.777-12.777-12.777-3.223 3.223 12.777 12.777-12.777 12.777 3.223 3.223 12.777-12.777 12.777 12.777 3.223-3.223-12.777-12.777 12.777-12.777z"></path></symbol><symbol id="email" viewBox="0 0 32 32"><path d="M26.667 5.333h-21.333c-1.467 0-2.652 1.2-2.652 2.667l-0.014 16c0 1.467 1.2 2.667 2.667 2.667h21.333c1.467 0 2.667-1.2 2.667-2.667v-16c0-1.467-1.2-2.667-2.667-2.667zM26.133 11.001l-9.426 5.892c-0.201 0.126-0.446 0.2-0.708 0.2s-0.506-0.075-0.713-0.204l0.006 0.003-9.426-5.892c-0.336-0.201-0.557-0.562-0.557-0.975 0-0.625 0.507-1.132 1.132-1.132 0.233 0 0.449 0.070 0.629 0.19l-0.004-0.003 8.933 5.586 8.933-5.588c0.176-0.118 0.392-0.188 0.624-0.188 0.625 0 1.132 0.507 1.132 1.132 0 0.413-0.221 0.775-0.552 0.972l-0.005 0.003z"></path></symbol><symbol id="person" viewBox="0 0 32 32"><path d="M16 16c2.946 0 5.333-2.388 5.333-5.333s-2.388-5.333-5.333-5.333v0c-2.946 0-5.333 2.388-5.333 5.333s2.388 5.333 5.333 5.333v0zM16 18.667c-3.561 0-10.667 1.787-10.667 5.333v1.333c0 0.732 0.599 1.333 1.333 1.333h18.667c0.732 0 1.333-0.601 1.333-1.333v-1.333c0-3.547-7.108-5.333-10.667-5.333z"></path></symbol><symbol id="phone" viewBox="0 0 32 32"><path d="M24.882 19.774l-3.268-0.373c-0.090-0.011-0.194-0.018-0.3-0.018-0.707 0-1.347 0.287-1.81 0.75l-2.368 2.368c-3.669-1.894-6.585-4.81-8.427-8.372l-0.051-0.108 2.382-2.377c0.463-0.463 0.75-1.103 0.75-1.81 0-0.106-0.006-0.21-0.019-0.312l0.001 0.012-0.373-3.243c-0.155-1.287-1.24-2.276-2.557-2.276-0.001 0-0.002 0-0.003 0h-2.226c-1.454 0-2.663 1.209-2.574 2.661 0.683 10.987 9.47 19.762 20.444 20.444 1.452 0.089 2.663-1.12 2.663-2.574v-2.226c0-0.004 0-0.008 0-0.012 0-1.308-0.985-2.386-2.253-2.532l-0.012-0.001z"></path></symbol></defs></svg>